<?xml version="1.0" encoding="iso-8859-1"?>
<!-- Generator: Adobe Illustrator 20.1.0, SVG Export Plug-In . SVG Version: 6.00 Build 0)  -->
<svg xmlns="http://www.w3.org/2000/svg" xmlns:xlink="http://www.w3.org/1999/xlink" version="1.1" id="&#1057;&#1083;&#1086;&#1081;_1" x="0px" y="0px" viewBox="0 0 64 64" style="enable-background:new 0 0 64 64;" xml:space="preserve">
<linearGradient id="SVGID_1__48308" gradientUnits="userSpaceOnUse" x1="20" y1="52.3333" x2="20" y2="57.8434" spreadMethod="reflect">
	<stop offset="0" style="stop-color:#6DC7FF"/>
	<stop offset="1" style="stop-color:#E6ABFF"/>
</linearGradient>
<rect x="16" y="54" style="fill:url(#SVGID_1__48308);" width="8" height="2"/>
<linearGradient id="SVGID_2__48308" gradientUnits="userSpaceOnUse" x1="44" y1="52.3333" x2="44" y2="57.8434" spreadMethod="reflect">
	<stop offset="0" style="stop-color:#6DC7FF"/>
	<stop offset="1" style="stop-color:#E6ABFF"/>
</linearGradient>
<rect x="40" y="54" style="fill:url(#SVGID_2__48308);" width="8" height="2"/>
<linearGradient id="SVGID_3__48308" gradientUnits="userSpaceOnUse" x1="32" y1="43.1667" x2="32" y2="47.1667" spreadMethod="reflect">
	<stop offset="0" style="stop-color:#6DC7FF"/>
	<stop offset="1" style="stop-color:#E6ABFF"/>
</linearGradient>
<path style="fill:url(#SVGID_3__48308);" d="M38,45c0,0.552-0.448,1-1,1H27c-0.552,0-1-0.448-1-1l0,0c0-0.552,0.448-1,1-1h10  C37.552,44,38,44.448,38,45L38,45z"/>
<linearGradient id="SVGID_4__48308" gradientUnits="userSpaceOnUse" x1="32" y1="26.1667" x2="32" y2="31.5026" spreadMethod="reflect">
	<stop offset="0" style="stop-color:#6DC7FF"/>
	<stop offset="1" style="stop-color:#E6ABFF"/>
</linearGradient>
<path style="fill:url(#SVGID_4__48308);" d="M38,29c0,0.552-0.448,1-1,1H27c-0.552,0-1-0.448-1-1v0c0-0.552,0.448-1,1-1h10  C37.552,28,38,28.448,38,29L38,29z"/>
<linearGradient id="SVGID_5__48308" gradientUnits="userSpaceOnUse" x1="32" y1="5.1667" x2="32" y2="58.1931" spreadMethod="reflect">
	<stop offset="0" style="stop-color:#1A6DFF"/>
	<stop offset="1" style="stop-color:#C822FF"/>
</linearGradient>
<path style="fill:url(#SVGID_5__48308);" d="M51,10h-1V9c0-1.654-1.346-3-3-3H17c-1.654,0-3,1.346-3,3v1h-1c-1.654,0-3,1.346-3,3v38  c0,1.654,1.346,3,3,3h1v2c0,1.103,0.897,2,2,2h8c1.103,0,2-0.897,2-2v-2h12v2c0,1.103,0.897,2,2,2h8c1.103,0,2-0.897,2-2v-2h1  c1.654,0,3-1.346,3-3V13C54,11.346,52.654,10,51,10z M16,9c0-0.552,0.449-1,1-1h30c0.551,0,1,0.448,1,1v1H16V9z M13,12h13  c0,1.103,0.897,2,2,2h8c1.103,0,2-0.897,2-2h13c0.551,0,1,0.448,1,1v7H12v-7C12,12.448,12.449,12,13,12z M52,22v14H12V22H52z M24,56  h-8v-2h8V56z M48,56h-8v-2h8V56z M51,52H13c-0.551,0-1-0.448-1-1V38h40v13C52,51.552,51.551,52,51,52z"/>
<linearGradient id="SVGID_6__48308" gradientUnits="userSpaceOnUse" x1="32" y1="5.1667" x2="32" y2="58.1931" spreadMethod="reflect">
	<stop offset="0" style="stop-color:#1A6DFF"/>
	<stop offset="1" style="stop-color:#C822FF"/>
</linearGradient>
<path style="fill:url(#SVGID_6__48308);" d="M16,34h32c1.103,0,2-0.897,2-2v-6c0-1.103-0.897-2-2-2H16c-1.103,0-2,0.897-2,2v6  C14,33.103,14.897,34,16,34z M16,26h32v6H16V26z"/>
<linearGradient id="SVGID_7__48308" gradientUnits="userSpaceOnUse" x1="32" y1="5.1667" x2="32" y2="58.1931" spreadMethod="reflect">
	<stop offset="0" style="stop-color:#1A6DFF"/>
	<stop offset="1" style="stop-color:#C822FF"/>
</linearGradient>
<path style="fill:url(#SVGID_7__48308);" d="M48,40H16c-1.103,0-2,0.897-2,2v6c0,1.103,0.897,2,2,2h32c1.103,0,2-0.897,2-2v-6  C50,40.897,49.103,40,48,40z M48,48H16v-6h32V48z"/>
</svg>
